<mxfile host="app.diagrams.net" modified="2021-02-05T03:15:21.782Z" agent="5.0 (Windows NT 10.0; Win64; x64) AppleWebKit/537.36 (KHTML, like Gecko) Chrome/88.0.4324.104 Safari/537.36" etag="LD_2s-xtqLvv4bOsGFSW" version="14.2.9" type="github">
  <diagram id="j5eENNFuExUJalh9vrai" name="瀏覽地圖－UI圖">
    <mxGraphModel dx="782" dy="462" grid="1" gridSize="10" guides="1" tooltips="1" connect="1" arrows="1" fold="1" page="1" pageScale="1" pageWidth="827" pageHeight="1169" math="0" shadow="0">
      <root>
        <mxCell id="0" />
        <mxCell id="1" parent="0" />
        <mxCell id="CQ5wD38VRIrhaRrIlDyT-1" value="使用者" style="shape=umlActor;verticalLabelPosition=bottom;verticalAlign=top;html=1;outlineConnect=0;" parent="1" vertex="1">
          <mxGeometry x="70" y="80" width="30" height="60" as="geometry" />
        </mxCell>
        <mxCell id="CQ5wD38VRIrhaRrIlDyT-2" value="瀏覽地圖UI" style="rounded=0;whiteSpace=wrap;html=1;" parent="1" vertex="1">
          <mxGeometry x="294" y="90" width="106" height="50" as="geometry" />
        </mxCell>
        <mxCell id="CQ5wD38VRIrhaRrIlDyT-3" value="過濾器UI" style="rounded=0;whiteSpace=wrap;html=1;" parent="1" vertex="1">
          <mxGeometry x="430" y="90" width="106" height="50" as="geometry" />
        </mxCell>
        <mxCell id="CQ5wD38VRIrhaRrIlDyT-4" value="搜尋UI" style="rounded=0;whiteSpace=wrap;html=1;" parent="1" vertex="1">
          <mxGeometry x="570" y="90" width="106" height="50" as="geometry" />
        </mxCell>
        <mxCell id="CQ5wD38VRIrhaRrIlDyT-5" value="Application&lt;br&gt;Core" style="rounded=0;whiteSpace=wrap;html=1;" parent="1" vertex="1">
          <mxGeometry x="710" y="90" width="106" height="50" as="geometry" />
        </mxCell>
        <mxCell id="CQ5wD38VRIrhaRrIlDyT-6" value="" style="endArrow=none;dashed=1;html=1;dashPattern=1 3;strokeWidth=2;" parent="1" source="CQ5wD38VRIrhaRrIlDyT-11" edge="1">
          <mxGeometry width="50" height="50" relative="1" as="geometry">
            <mxPoint x="85" y="620" as="sourcePoint" />
            <mxPoint x="85" y="170" as="targetPoint" />
          </mxGeometry>
        </mxCell>
        <mxCell id="CQ5wD38VRIrhaRrIlDyT-7" value="" style="endArrow=none;dashed=1;html=1;dashPattern=1 3;strokeWidth=2;" parent="1" source="CQ5wD38VRIrhaRrIlDyT-13" edge="1">
          <mxGeometry width="50" height="50" relative="1" as="geometry">
            <mxPoint x="346.5" y="619" as="sourcePoint" />
            <mxPoint x="346.5" y="169" as="targetPoint" />
          </mxGeometry>
        </mxCell>
        <mxCell id="CQ5wD38VRIrhaRrIlDyT-8" value="" style="endArrow=none;dashed=1;html=1;dashPattern=1 3;strokeWidth=2;" parent="1" source="CQ5wD38VRIrhaRrIlDyT-39" edge="1">
          <mxGeometry width="50" height="50" relative="1" as="geometry">
            <mxPoint x="482.5" y="620" as="sourcePoint" />
            <mxPoint x="482.5" y="170" as="targetPoint" />
          </mxGeometry>
        </mxCell>
        <mxCell id="CQ5wD38VRIrhaRrIlDyT-9" value="" style="endArrow=none;dashed=1;html=1;dashPattern=1 3;strokeWidth=2;" parent="1" edge="1" source="1peLIf2quNtcG3wsu8pr-92">
          <mxGeometry width="50" height="50" relative="1" as="geometry">
            <mxPoint x="623" y="820" as="sourcePoint" />
            <mxPoint x="622.5" y="170" as="targetPoint" />
          </mxGeometry>
        </mxCell>
        <mxCell id="CQ5wD38VRIrhaRrIlDyT-10" value="" style="endArrow=none;dashed=1;html=1;dashPattern=1 3;strokeWidth=2;" parent="1" source="CQ5wD38VRIrhaRrIlDyT-18" edge="1">
          <mxGeometry width="50" height="50" relative="1" as="geometry">
            <mxPoint x="762.5" y="620" as="sourcePoint" />
            <mxPoint x="762.5" y="170" as="targetPoint" />
          </mxGeometry>
        </mxCell>
        <mxCell id="1peLIf2quNtcG3wsu8pr-116" value="" style="edgeStyle=orthogonalEdgeStyle;rounded=0;orthogonalLoop=1;jettySize=auto;html=1;" edge="1" parent="1" source="CQ5wD38VRIrhaRrIlDyT-11">
          <mxGeometry relative="1" as="geometry">
            <mxPoint x="340" y="200" as="targetPoint" />
          </mxGeometry>
        </mxCell>
        <mxCell id="1peLIf2quNtcG3wsu8pr-117" value="1.瀏覽地圖" style="edgeLabel;html=1;align=center;verticalAlign=middle;resizable=0;points=[];" vertex="1" connectable="0" parent="1peLIf2quNtcG3wsu8pr-116">
          <mxGeometry x="0.261" relative="1" as="geometry">
            <mxPoint x="22.35" y="-10" as="offset" />
          </mxGeometry>
        </mxCell>
        <mxCell id="CQ5wD38VRIrhaRrIlDyT-11" value="" style="verticalLabelPosition=bottom;verticalAlign=top;html=1;shape=mxgraph.basic.rect;fillColor2=none;strokeWidth=1;size=20;indent=5;" parent="1" vertex="1">
          <mxGeometry x="80" y="180" width="10" height="40" as="geometry" />
        </mxCell>
        <mxCell id="CQ5wD38VRIrhaRrIlDyT-12" value="" style="endArrow=none;dashed=1;html=1;dashPattern=1 3;strokeWidth=2;" parent="1" source="CQ5wD38VRIrhaRrIlDyT-29" target="CQ5wD38VRIrhaRrIlDyT-11" edge="1">
          <mxGeometry width="50" height="50" relative="1" as="geometry">
            <mxPoint x="85" y="620" as="sourcePoint" />
            <mxPoint x="85" y="170" as="targetPoint" />
          </mxGeometry>
        </mxCell>
        <mxCell id="CQ5wD38VRIrhaRrIlDyT-13" value="" style="verticalLabelPosition=bottom;verticalAlign=top;html=1;shape=mxgraph.basic.rect;fillColor2=none;strokeWidth=1;size=20;indent=5;" parent="1" vertex="1">
          <mxGeometry x="342" y="180" width="10" height="70" as="geometry" />
        </mxCell>
        <mxCell id="CQ5wD38VRIrhaRrIlDyT-14" value="" style="endArrow=none;dashed=1;html=1;dashPattern=1 3;strokeWidth=2;" parent="1" target="CQ5wD38VRIrhaRrIlDyT-13" edge="1" source="1peLIf2quNtcG3wsu8pr-48">
          <mxGeometry width="50" height="50" relative="1" as="geometry">
            <mxPoint x="347" y="380" as="sourcePoint" />
            <mxPoint x="346.5" y="169" as="targetPoint" />
          </mxGeometry>
        </mxCell>
        <mxCell id="CQ5wD38VRIrhaRrIlDyT-18" value="" style="verticalLabelPosition=bottom;verticalAlign=top;html=1;shape=mxgraph.basic.rect;fillColor2=none;strokeWidth=1;size=20;indent=5;" parent="1" vertex="1">
          <mxGeometry x="758" y="180" width="10" height="120" as="geometry" />
        </mxCell>
        <mxCell id="CQ5wD38VRIrhaRrIlDyT-21" value="" style="endArrow=none;dashed=1;html=1;dashPattern=1 3;strokeWidth=2;" parent="1" source="CQ5wD38VRIrhaRrIlDyT-43" target="CQ5wD38VRIrhaRrIlDyT-18" edge="1">
          <mxGeometry width="50" height="50" relative="1" as="geometry">
            <mxPoint x="762.5" y="620" as="sourcePoint" />
            <mxPoint x="762.5" y="170" as="targetPoint" />
          </mxGeometry>
        </mxCell>
        <mxCell id="CQ5wD38VRIrhaRrIlDyT-23" value="" style="endArrow=classic;html=1;exitX=1;exitY=0.025;exitDx=0;exitDy=0;exitPerimeter=0;entryX=0.2;entryY=0.018;entryDx=0;entryDy=0;entryPerimeter=0;" parent="1" edge="1">
          <mxGeometry width="50" height="50" relative="1" as="geometry">
            <mxPoint x="352" y="181" as="sourcePoint" />
            <mxPoint x="760" y="182.34000000000003" as="targetPoint" />
          </mxGeometry>
        </mxCell>
        <mxCell id="CQ5wD38VRIrhaRrIlDyT-24" value="2.傳送Request給googleMapApi" style="edgeLabel;html=1;align=center;verticalAlign=middle;resizable=0;points=[];" parent="CQ5wD38VRIrhaRrIlDyT-23" vertex="1" connectable="0">
          <mxGeometry x="0.17" y="-1" relative="1" as="geometry">
            <mxPoint x="-71" y="-12.78" as="offset" />
          </mxGeometry>
        </mxCell>
        <mxCell id="CQ5wD38VRIrhaRrIlDyT-25" value="" style="endArrow=classic;html=1;exitX=1;exitY=0.025;exitDx=0;exitDy=0;exitPerimeter=0;entryX=0.2;entryY=0.018;entryDx=0;entryDy=0;entryPerimeter=0;" parent="1" edge="1">
          <mxGeometry width="50" height="50" relative="1" as="geometry">
            <mxPoint x="760" y="220.00000000000003" as="sourcePoint" />
            <mxPoint x="352" y="218.66" as="targetPoint" />
          </mxGeometry>
        </mxCell>
        <mxCell id="CQ5wD38VRIrhaRrIlDyT-26" value="3.googleMapApi Response生成瀏覽地圖UI" style="edgeLabel;html=1;align=center;verticalAlign=middle;resizable=0;points=[];" parent="CQ5wD38VRIrhaRrIlDyT-25" vertex="1" connectable="0">
          <mxGeometry x="0.17" y="-1" relative="1" as="geometry">
            <mxPoint x="-1" y="-8.219999999999999" as="offset" />
          </mxGeometry>
        </mxCell>
        <mxCell id="1peLIf2quNtcG3wsu8pr-49" value="" style="edgeStyle=orthogonalEdgeStyle;rounded=0;orthogonalLoop=1;jettySize=auto;html=1;" edge="1" parent="1" source="CQ5wD38VRIrhaRrIlDyT-29" target="1peLIf2quNtcG3wsu8pr-48">
          <mxGeometry relative="1" as="geometry">
            <Array as="points">
              <mxPoint x="300" y="342" />
              <mxPoint x="300" y="342" />
            </Array>
          </mxGeometry>
        </mxCell>
        <mxCell id="1peLIf2quNtcG3wsu8pr-51" value="6.瀏覽地圖" style="edgeLabel;html=1;align=center;verticalAlign=middle;resizable=0;points=[];" vertex="1" connectable="0" parent="1peLIf2quNtcG3wsu8pr-49">
          <mxGeometry x="0.2405" y="2" relative="1" as="geometry">
            <mxPoint x="23.529999999999998" y="-8" as="offset" />
          </mxGeometry>
        </mxCell>
        <mxCell id="CQ5wD38VRIrhaRrIlDyT-29" value="" style="verticalLabelPosition=bottom;verticalAlign=top;html=1;shape=mxgraph.basic.rect;fillColor2=none;strokeWidth=1;size=20;indent=5;" parent="1" vertex="1">
          <mxGeometry x="80" y="324" width="10" height="36" as="geometry" />
        </mxCell>
        <mxCell id="CQ5wD38VRIrhaRrIlDyT-30" value="" style="endArrow=none;dashed=1;html=1;dashPattern=1 3;strokeWidth=2;" parent="1" source="1peLIf2quNtcG3wsu8pr-130" target="CQ5wD38VRIrhaRrIlDyT-29" edge="1">
          <mxGeometry width="50" height="50" relative="1" as="geometry">
            <mxPoint x="85" y="674" as="sourcePoint" />
            <mxPoint x="85" y="274" as="targetPoint" />
          </mxGeometry>
        </mxCell>
        <mxCell id="CQ5wD38VRIrhaRrIlDyT-34" value="" style="endArrow=none;dashed=1;html=1;dashPattern=1 3;strokeWidth=2;" parent="1" edge="1" source="1peLIf2quNtcG3wsu8pr-73">
          <mxGeometry width="50" height="50" relative="1" as="geometry">
            <mxPoint x="346.5" y="874" as="sourcePoint" />
            <mxPoint x="346.97047244094483" y="434" as="targetPoint" />
          </mxGeometry>
        </mxCell>
        <mxCell id="CQ5wD38VRIrhaRrIlDyT-39" value="" style="verticalLabelPosition=bottom;verticalAlign=top;html=1;shape=mxgraph.basic.rect;fillColor2=none;strokeWidth=1;size=20;indent=5;" parent="1" vertex="1">
          <mxGeometry x="478" y="354" width="10" height="50" as="geometry" />
        </mxCell>
        <mxCell id="CQ5wD38VRIrhaRrIlDyT-40" value="" style="endArrow=none;dashed=1;html=1;dashPattern=1 3;strokeWidth=2;" parent="1" target="CQ5wD38VRIrhaRrIlDyT-39" edge="1">
          <mxGeometry width="50" height="50" relative="1" as="geometry">
            <mxPoint x="482.5" y="919" as="sourcePoint" />
            <mxPoint x="482.5" y="170" as="targetPoint" />
          </mxGeometry>
        </mxCell>
        <mxCell id="CQ5wD38VRIrhaRrIlDyT-43" value="" style="verticalLabelPosition=bottom;verticalAlign=top;html=1;shape=mxgraph.basic.rect;fillColor2=none;strokeWidth=1;size=20;indent=5;" parent="1" vertex="1">
          <mxGeometry x="758" y="324" width="10" height="166" as="geometry" />
        </mxCell>
        <mxCell id="CQ5wD38VRIrhaRrIlDyT-45" value="" style="endArrow=none;dashed=1;html=1;dashPattern=1 3;strokeWidth=2;entryX=0.5;entryY=1.046;entryDx=0;entryDy=0;entryPerimeter=0;" parent="1" source="CQ5wD38VRIrhaRrIlDyT-65" target="CQ5wD38VRIrhaRrIlDyT-43" edge="1">
          <mxGeometry width="50" height="50" relative="1" as="geometry">
            <mxPoint x="762.5" y="748" as="sourcePoint" />
            <mxPoint x="763" y="470" as="targetPoint" />
          </mxGeometry>
        </mxCell>
        <mxCell id="1peLIf2quNtcG3wsu8pr-79" value="" style="edgeStyle=orthogonalEdgeStyle;rounded=0;orthogonalLoop=1;jettySize=auto;html=1;" edge="1" parent="1" source="CQ5wD38VRIrhaRrIlDyT-55" target="1peLIf2quNtcG3wsu8pr-78">
          <mxGeometry relative="1" as="geometry">
            <Array as="points">
              <mxPoint x="300" y="558" />
              <mxPoint x="300" y="558" />
            </Array>
          </mxGeometry>
        </mxCell>
        <mxCell id="1peLIf2quNtcG3wsu8pr-81" value="14.瀏覽地圖" style="edgeLabel;html=1;align=center;verticalAlign=middle;resizable=0;points=[];" vertex="1" connectable="0" parent="1peLIf2quNtcG3wsu8pr-79">
          <mxGeometry x="0.1762" y="1" relative="1" as="geometry">
            <mxPoint x="31.759999999999998" y="-12" as="offset" />
          </mxGeometry>
        </mxCell>
        <mxCell id="CQ5wD38VRIrhaRrIlDyT-55" value="" style="verticalLabelPosition=bottom;verticalAlign=top;html=1;shape=mxgraph.basic.rect;fillColor2=none;strokeWidth=1;size=20;indent=5;" parent="1" vertex="1">
          <mxGeometry x="80" y="550" width="10" height="40" as="geometry" />
        </mxCell>
        <mxCell id="CQ5wD38VRIrhaRrIlDyT-56" value="" style="endArrow=none;dashed=1;html=1;dashPattern=1 3;strokeWidth=2;" parent="1" target="CQ5wD38VRIrhaRrIlDyT-55" edge="1">
          <mxGeometry width="50" height="50" relative="1" as="geometry">
            <mxPoint x="85" y="919" as="sourcePoint" />
            <mxPoint x="-18" y="454" as="targetPoint" />
          </mxGeometry>
        </mxCell>
        <mxCell id="CQ5wD38VRIrhaRrIlDyT-65" value="" style="verticalLabelPosition=bottom;verticalAlign=top;html=1;shape=mxgraph.basic.rect;fillColor2=none;strokeWidth=1;size=20;indent=5;" parent="1" vertex="1">
          <mxGeometry x="758" y="550" width="10" height="140" as="geometry" />
        </mxCell>
        <mxCell id="CQ5wD38VRIrhaRrIlDyT-67" value="" style="endArrow=none;dashed=1;html=1;dashPattern=1 3;strokeWidth=2;" parent="1" target="CQ5wD38VRIrhaRrIlDyT-65" edge="1" source="1peLIf2quNtcG3wsu8pr-10">
          <mxGeometry width="50" height="50" relative="1" as="geometry">
            <mxPoint x="763" y="948" as="sourcePoint" />
            <mxPoint x="762.9509803921571" y="518" as="targetPoint" />
          </mxGeometry>
        </mxCell>
        <mxCell id="1peLIf2quNtcG3wsu8pr-8" value="" style="edgeStyle=orthogonalEdgeStyle;rounded=0;orthogonalLoop=1;jettySize=auto;html=1;" edge="1" parent="1" source="1peLIf2quNtcG3wsu8pr-6" target="1peLIf2quNtcG3wsu8pr-7">
          <mxGeometry relative="1" as="geometry">
            <Array as="points">
              <mxPoint x="300" y="761" />
              <mxPoint x="300" y="761" />
            </Array>
          </mxGeometry>
        </mxCell>
        <mxCell id="1peLIf2quNtcG3wsu8pr-13" value="22.瀏覽地圖" style="edgeLabel;html=1;align=center;verticalAlign=middle;resizable=0;points=[];" vertex="1" connectable="0" parent="1peLIf2quNtcG3wsu8pr-8">
          <mxGeometry x="0.2487" y="-2" relative="1" as="geometry">
            <mxPoint x="22.349999999999994" y="-12" as="offset" />
          </mxGeometry>
        </mxCell>
        <mxCell id="1peLIf2quNtcG3wsu8pr-6" value="" style="verticalLabelPosition=bottom;verticalAlign=top;html=1;shape=mxgraph.basic.rect;fillColor2=none;strokeWidth=1;size=20;indent=5;" vertex="1" parent="1">
          <mxGeometry x="80" y="751" width="10" height="40" as="geometry" />
        </mxCell>
        <mxCell id="1peLIf2quNtcG3wsu8pr-11" value="" style="edgeStyle=orthogonalEdgeStyle;rounded=0;orthogonalLoop=1;jettySize=auto;html=1;" edge="1" parent="1" source="1peLIf2quNtcG3wsu8pr-7" target="1peLIf2quNtcG3wsu8pr-10">
          <mxGeometry relative="1" as="geometry">
            <Array as="points">
              <mxPoint x="390" y="761" />
              <mxPoint x="390" y="761" />
            </Array>
          </mxGeometry>
        </mxCell>
        <mxCell id="1peLIf2quNtcG3wsu8pr-14" value="23.點選切換圖層" style="edgeLabel;html=1;align=center;verticalAlign=middle;resizable=0;points=[];" vertex="1" connectable="0" parent="1peLIf2quNtcG3wsu8pr-11">
          <mxGeometry x="0.1686" y="-2" relative="1" as="geometry">
            <mxPoint x="-39.65" y="-12" as="offset" />
          </mxGeometry>
        </mxCell>
        <mxCell id="1peLIf2quNtcG3wsu8pr-7" value="" style="verticalLabelPosition=bottom;verticalAlign=top;html=1;shape=mxgraph.basic.rect;fillColor2=none;strokeWidth=1;size=20;indent=5;" vertex="1" parent="1">
          <mxGeometry x="342" y="751" width="10" height="40" as="geometry" />
        </mxCell>
        <mxCell id="1peLIf2quNtcG3wsu8pr-9" value="" style="endArrow=none;dashed=1;html=1;dashPattern=1 3;strokeWidth=2;" edge="1" parent="1" source="1peLIf2quNtcG3wsu8pr-27" target="1peLIf2quNtcG3wsu8pr-7">
          <mxGeometry width="50" height="50" relative="1" as="geometry">
            <mxPoint x="346.5" y="961" as="sourcePoint" />
            <mxPoint x="346.97047244094483" y="520.9999999999999" as="targetPoint" />
          </mxGeometry>
        </mxCell>
        <mxCell id="1peLIf2quNtcG3wsu8pr-10" value="" style="verticalLabelPosition=bottom;verticalAlign=top;html=1;shape=mxgraph.basic.rect;fillColor2=none;strokeWidth=1;size=20;indent=5;" vertex="1" parent="1">
          <mxGeometry x="758" y="751" width="10" height="40" as="geometry" />
        </mxCell>
        <mxCell id="1peLIf2quNtcG3wsu8pr-12" value="" style="endArrow=none;dashed=1;html=1;dashPattern=1 3;strokeWidth=2;" edge="1" parent="1" source="1peLIf2quNtcG3wsu8pr-30" target="1peLIf2quNtcG3wsu8pr-10">
          <mxGeometry width="50" height="50" relative="1" as="geometry">
            <mxPoint x="763" y="961" as="sourcePoint" />
            <mxPoint x="763" y="631" as="targetPoint" />
          </mxGeometry>
        </mxCell>
        <mxCell id="1peLIf2quNtcG3wsu8pr-15" value="" style="edgeStyle=orthogonalEdgeStyle;rounded=0;orthogonalLoop=1;jettySize=auto;html=1;" edge="1" parent="1" source="1peLIf2quNtcG3wsu8pr-10" target="1peLIf2quNtcG3wsu8pr-7">
          <mxGeometry relative="1" as="geometry">
            <mxPoint x="758" y="761" as="sourcePoint" />
            <mxPoint x="352" y="761" as="targetPoint" />
            <Array as="points">
              <mxPoint x="700" y="781" />
              <mxPoint x="700" y="781" />
            </Array>
          </mxGeometry>
        </mxCell>
        <mxCell id="1peLIf2quNtcG3wsu8pr-16" value="24.顯示其他圖層的地圖" style="edgeLabel;html=1;align=center;verticalAlign=middle;resizable=0;points=[];" vertex="1" connectable="0" parent="1peLIf2quNtcG3wsu8pr-15">
          <mxGeometry x="0.1686" y="-2" relative="1" as="geometry">
            <mxPoint x="29.65" y="-8" as="offset" />
          </mxGeometry>
        </mxCell>
        <mxCell id="1peLIf2quNtcG3wsu8pr-28" value="" style="edgeStyle=orthogonalEdgeStyle;rounded=0;orthogonalLoop=1;jettySize=auto;html=1;" edge="1" parent="1" source="1peLIf2quNtcG3wsu8pr-26" target="1peLIf2quNtcG3wsu8pr-27">
          <mxGeometry relative="1" as="geometry">
            <Array as="points">
              <mxPoint x="300" y="873" />
              <mxPoint x="300" y="873" />
            </Array>
          </mxGeometry>
        </mxCell>
        <mxCell id="1peLIf2quNtcG3wsu8pr-33" value="25.瀏覽地圖" style="edgeLabel;html=1;align=center;verticalAlign=middle;resizable=0;points=[];" vertex="1" connectable="0" parent="1peLIf2quNtcG3wsu8pr-28">
          <mxGeometry x="0.1622" y="2" relative="1" as="geometry">
            <mxPoint x="34.12" y="-8" as="offset" />
          </mxGeometry>
        </mxCell>
        <mxCell id="1peLIf2quNtcG3wsu8pr-26" value="" style="verticalLabelPosition=bottom;verticalAlign=top;html=1;shape=mxgraph.basic.rect;fillColor2=none;strokeWidth=1;size=20;indent=5;" vertex="1" parent="1">
          <mxGeometry x="80" y="863" width="10" height="40" as="geometry" />
        </mxCell>
        <mxCell id="1peLIf2quNtcG3wsu8pr-31" value="" style="edgeStyle=orthogonalEdgeStyle;rounded=0;orthogonalLoop=1;jettySize=auto;html=1;" edge="1" parent="1" source="1peLIf2quNtcG3wsu8pr-27" target="1peLIf2quNtcG3wsu8pr-30">
          <mxGeometry relative="1" as="geometry">
            <Array as="points">
              <mxPoint x="390" y="873" />
              <mxPoint x="390" y="873" />
            </Array>
          </mxGeometry>
        </mxCell>
        <mxCell id="1peLIf2quNtcG3wsu8pr-34" value="26.定位自己的位置" style="edgeLabel;html=1;align=center;verticalAlign=middle;resizable=0;points=[];" vertex="1" connectable="0" parent="1peLIf2quNtcG3wsu8pr-31">
          <mxGeometry x="0.1453" y="2" relative="1" as="geometry">
            <mxPoint x="-24.94" y="-8" as="offset" />
          </mxGeometry>
        </mxCell>
        <mxCell id="1peLIf2quNtcG3wsu8pr-27" value="" style="verticalLabelPosition=bottom;verticalAlign=top;html=1;shape=mxgraph.basic.rect;fillColor2=none;strokeWidth=1;size=20;indent=5;" vertex="1" parent="1">
          <mxGeometry x="342" y="863" width="10" height="40" as="geometry" />
        </mxCell>
        <mxCell id="1peLIf2quNtcG3wsu8pr-29" value="" style="endArrow=none;dashed=1;html=1;dashPattern=1 3;strokeWidth=2;" edge="1" parent="1" target="1peLIf2quNtcG3wsu8pr-27">
          <mxGeometry width="50" height="50" relative="1" as="geometry">
            <mxPoint x="346.5" y="919" as="sourcePoint" />
            <mxPoint x="346.9473684210525" y="749" as="targetPoint" />
          </mxGeometry>
        </mxCell>
        <mxCell id="1peLIf2quNtcG3wsu8pr-30" value="" style="verticalLabelPosition=bottom;verticalAlign=top;html=1;shape=mxgraph.basic.rect;fillColor2=none;strokeWidth=1;size=20;indent=5;" vertex="1" parent="1">
          <mxGeometry x="758" y="863" width="10" height="40" as="geometry" />
        </mxCell>
        <mxCell id="1peLIf2quNtcG3wsu8pr-32" value="" style="endArrow=none;dashed=1;html=1;dashPattern=1 3;strokeWidth=2;" edge="1" parent="1" target="1peLIf2quNtcG3wsu8pr-30">
          <mxGeometry width="50" height="50" relative="1" as="geometry">
            <mxPoint x="763" y="919" as="sourcePoint" />
            <mxPoint x="763" y="749" as="targetPoint" />
          </mxGeometry>
        </mxCell>
        <mxCell id="1peLIf2quNtcG3wsu8pr-37" value="" style="edgeStyle=orthogonalEdgeStyle;rounded=0;orthogonalLoop=1;jettySize=auto;html=1;" edge="1" parent="1" source="1peLIf2quNtcG3wsu8pr-30" target="1peLIf2quNtcG3wsu8pr-27">
          <mxGeometry relative="1" as="geometry">
            <mxPoint x="758" y="873" as="sourcePoint" />
            <mxPoint x="352" y="873" as="targetPoint" />
            <Array as="points">
              <mxPoint x="690" y="893" />
              <mxPoint x="690" y="893" />
            </Array>
          </mxGeometry>
        </mxCell>
        <mxCell id="1peLIf2quNtcG3wsu8pr-38" value="27.返回自己的定位資訊" style="edgeLabel;html=1;align=center;verticalAlign=middle;resizable=0;points=[];" vertex="1" connectable="0" parent="1peLIf2quNtcG3wsu8pr-37">
          <mxGeometry x="0.1453" y="2" relative="1" as="geometry">
            <mxPoint x="24.939999999999998" y="-12" as="offset" />
          </mxGeometry>
        </mxCell>
        <mxCell id="1peLIf2quNtcG3wsu8pr-54" value="" style="edgeStyle=orthogonalEdgeStyle;rounded=0;orthogonalLoop=1;jettySize=auto;html=1;entryX=0.2;entryY=0.123;entryDx=0;entryDy=0;entryPerimeter=0;" edge="1" parent="1" source="1peLIf2quNtcG3wsu8pr-48" target="CQ5wD38VRIrhaRrIlDyT-43">
          <mxGeometry relative="1" as="geometry">
            <mxPoint x="750" y="350" as="targetPoint" />
            <Array as="points">
              <mxPoint x="520" y="344" />
              <mxPoint x="520" y="344" />
            </Array>
          </mxGeometry>
        </mxCell>
        <mxCell id="1peLIf2quNtcG3wsu8pr-55" value="7.使用過濾器篩選" style="edgeLabel;html=1;align=center;verticalAlign=middle;resizable=0;points=[];" vertex="1" connectable="0" parent="1peLIf2quNtcG3wsu8pr-54">
          <mxGeometry x="0.1416" y="2" relative="1" as="geometry">
            <mxPoint x="-30.81" y="-8.62" as="offset" />
          </mxGeometry>
        </mxCell>
        <mxCell id="1peLIf2quNtcG3wsu8pr-48" value="" style="verticalLabelPosition=bottom;verticalAlign=top;html=1;shape=mxgraph.basic.rect;fillColor2=none;strokeWidth=1;size=20;indent=5;" vertex="1" parent="1">
          <mxGeometry x="342" y="324" width="10" height="36" as="geometry" />
        </mxCell>
        <mxCell id="1peLIf2quNtcG3wsu8pr-50" value="" style="endArrow=none;dashed=1;html=1;dashPattern=1 3;strokeWidth=2;" edge="1" parent="1" target="1peLIf2quNtcG3wsu8pr-48">
          <mxGeometry width="50" height="50" relative="1" as="geometry">
            <mxPoint x="347" y="433.9999999999999" as="sourcePoint" />
            <mxPoint x="347" y="283.9999999999999" as="targetPoint" />
          </mxGeometry>
        </mxCell>
        <mxCell id="1peLIf2quNtcG3wsu8pr-64" value="" style="edgeStyle=orthogonalEdgeStyle;rounded=0;orthogonalLoop=1;jettySize=auto;html=1;exitX=-0.032;exitY=0.272;exitDx=0;exitDy=0;exitPerimeter=0;" edge="1" parent="1" source="CQ5wD38VRIrhaRrIlDyT-43">
          <mxGeometry relative="1" as="geometry">
            <mxPoint x="600" y="364" as="sourcePoint" />
            <mxPoint x="488" y="369" as="targetPoint" />
            <Array as="points">
              <mxPoint x="488" y="369" />
            </Array>
          </mxGeometry>
        </mxCell>
        <mxCell id="1peLIf2quNtcG3wsu8pr-65" value="8.透過過濾器挑選條件" style="edgeLabel;html=1;align=center;verticalAlign=middle;resizable=0;points=[];" vertex="1" connectable="0" parent="1peLIf2quNtcG3wsu8pr-64">
          <mxGeometry x="0.2405" y="2" relative="1" as="geometry">
            <mxPoint x="-31.760000000000005" y="-12.02" as="offset" />
          </mxGeometry>
        </mxCell>
        <mxCell id="1peLIf2quNtcG3wsu8pr-66" value="" style="edgeStyle=orthogonalEdgeStyle;rounded=0;orthogonalLoop=1;jettySize=auto;html=1;entryX=0.04;entryY=0.414;entryDx=0;entryDy=0;entryPerimeter=0;" edge="1" parent="1" target="CQ5wD38VRIrhaRrIlDyT-43">
          <mxGeometry relative="1" as="geometry">
            <mxPoint x="488" y="384" as="sourcePoint" />
            <mxPoint x="600" y="384" as="targetPoint" />
            <Array as="points">
              <mxPoint x="488" y="393" />
            </Array>
          </mxGeometry>
        </mxCell>
        <mxCell id="1peLIf2quNtcG3wsu8pr-67" value="9.回傳挑選條件" style="edgeLabel;html=1;align=center;verticalAlign=middle;resizable=0;points=[];" vertex="1" connectable="0" parent="1peLIf2quNtcG3wsu8pr-66">
          <mxGeometry x="0.2405" y="2" relative="1" as="geometry">
            <mxPoint x="-105.06" y="-8" as="offset" />
          </mxGeometry>
        </mxCell>
        <mxCell id="1peLIf2quNtcG3wsu8pr-73" value="" style="verticalLabelPosition=bottom;verticalAlign=top;html=1;shape=mxgraph.basic.rect;fillColor2=none;strokeWidth=1;size=20;indent=5;" vertex="1" parent="1">
          <mxGeometry x="342" y="418" width="10" height="42" as="geometry" />
        </mxCell>
        <mxCell id="1peLIf2quNtcG3wsu8pr-75" value="" style="endArrow=none;dashed=1;html=1;dashPattern=1 3;strokeWidth=2;entryX=0.57;entryY=1.041;entryDx=0;entryDy=0;entryPerimeter=0;" edge="1" parent="1" target="1peLIf2quNtcG3wsu8pr-73">
          <mxGeometry width="50" height="50" relative="1" as="geometry">
            <mxPoint x="346.8739451661472" y="550" as="sourcePoint" />
            <mxPoint x="390" y="480" as="targetPoint" />
          </mxGeometry>
        </mxCell>
        <mxCell id="1peLIf2quNtcG3wsu8pr-76" value="" style="edgeStyle=orthogonalEdgeStyle;rounded=0;orthogonalLoop=1;jettySize=auto;html=1;entryX=-0.317;entryY=0.135;entryDx=0;entryDy=0;entryPerimeter=0;" edge="1" parent="1">
          <mxGeometry relative="1" as="geometry">
            <mxPoint x="754.8299999999999" y="433.9" as="sourcePoint" />
            <mxPoint x="352" y="434.35" as="targetPoint" />
            <Array as="points">
              <mxPoint x="656.83" y="434" />
              <mxPoint x="656.83" y="434" />
            </Array>
          </mxGeometry>
        </mxCell>
        <mxCell id="1peLIf2quNtcG3wsu8pr-77" value="10.顯示過濾器篩選後的地圖" style="edgeLabel;html=1;align=center;verticalAlign=middle;resizable=0;points=[];" vertex="1" connectable="0" parent="1peLIf2quNtcG3wsu8pr-76">
          <mxGeometry x="0.1416" y="2" relative="1" as="geometry">
            <mxPoint x="24.580000000000002" y="-15.079999999999998" as="offset" />
          </mxGeometry>
        </mxCell>
        <mxCell id="1peLIf2quNtcG3wsu8pr-83" value="" style="edgeStyle=orthogonalEdgeStyle;rounded=0;orthogonalLoop=1;jettySize=auto;html=1;" edge="1" parent="1" source="1peLIf2quNtcG3wsu8pr-78">
          <mxGeometry relative="1" as="geometry">
            <mxPoint x="757" y="558" as="targetPoint" />
            <Array as="points">
              <mxPoint x="720" y="558" />
            </Array>
          </mxGeometry>
        </mxCell>
        <mxCell id="1peLIf2quNtcG3wsu8pr-85" value="15.使用搜尋器篩選" style="edgeLabel;html=1;align=center;verticalAlign=middle;resizable=0;points=[];" vertex="1" connectable="0" parent="1peLIf2quNtcG3wsu8pr-83">
          <mxGeometry x="0.7794" y="3" relative="1" as="geometry">
            <mxPoint x="-172" y="-7" as="offset" />
          </mxGeometry>
        </mxCell>
        <mxCell id="1peLIf2quNtcG3wsu8pr-78" value="" style="verticalLabelPosition=bottom;verticalAlign=top;html=1;shape=mxgraph.basic.rect;fillColor2=none;strokeWidth=1;size=20;indent=5;" vertex="1" parent="1">
          <mxGeometry x="342" y="550" width="10" height="40" as="geometry" />
        </mxCell>
        <mxCell id="1peLIf2quNtcG3wsu8pr-80" value="" style="endArrow=none;dashed=1;html=1;dashPattern=1 3;strokeWidth=2;" edge="1" parent="1" source="1peLIf2quNtcG3wsu8pr-7" target="1peLIf2quNtcG3wsu8pr-78">
          <mxGeometry width="50" height="50" relative="1" as="geometry">
            <mxPoint x="347" y="738" as="sourcePoint" />
            <mxPoint x="347" y="528.0000000000001" as="targetPoint" />
          </mxGeometry>
        </mxCell>
        <mxCell id="1peLIf2quNtcG3wsu8pr-92" value="" style="verticalLabelPosition=bottom;verticalAlign=top;html=1;shape=mxgraph.basic.rect;fillColor2=none;strokeWidth=1;size=20;indent=5;" vertex="1" parent="1">
          <mxGeometry x="618" y="567" width="10" height="40" as="geometry" />
        </mxCell>
        <mxCell id="1peLIf2quNtcG3wsu8pr-94" value="" style="endArrow=none;dashed=1;html=1;dashPattern=1 3;strokeWidth=2;" edge="1" parent="1" target="1peLIf2quNtcG3wsu8pr-92">
          <mxGeometry width="50" height="50" relative="1" as="geometry">
            <mxPoint x="623" y="919" as="sourcePoint" />
            <mxPoint x="622.5" y="243.9999999999999" as="targetPoint" />
          </mxGeometry>
        </mxCell>
        <mxCell id="1peLIf2quNtcG3wsu8pr-95" value="" style="edgeStyle=orthogonalEdgeStyle;rounded=0;orthogonalLoop=1;jettySize=auto;html=1;" edge="1" parent="1">
          <mxGeometry relative="1" as="geometry">
            <mxPoint x="755" y="577" as="sourcePoint" />
            <mxPoint x="630" y="577" as="targetPoint" />
            <Array as="points" />
          </mxGeometry>
        </mxCell>
        <mxCell id="1peLIf2quNtcG3wsu8pr-96" value="16.透過搜尋器挑選條件" style="edgeLabel;html=1;align=center;verticalAlign=middle;resizable=0;points=[];" vertex="1" connectable="0" parent="1peLIf2quNtcG3wsu8pr-95">
          <mxGeometry x="0.2405" y="2" relative="1" as="geometry">
            <mxPoint x="11.719999999999992" y="-12.049999999999999" as="offset" />
          </mxGeometry>
        </mxCell>
        <mxCell id="1peLIf2quNtcG3wsu8pr-105" value="" style="edgeStyle=orthogonalEdgeStyle;rounded=0;orthogonalLoop=1;jettySize=auto;html=1;" edge="1" parent="1">
          <mxGeometry relative="1" as="geometry">
            <mxPoint x="628" y="598.0000000000001" as="sourcePoint" />
            <mxPoint x="758" y="598.0000000000001" as="targetPoint" />
            <Array as="points">
              <mxPoint x="698" y="598" />
              <mxPoint x="698" y="598" />
            </Array>
          </mxGeometry>
        </mxCell>
        <mxCell id="1peLIf2quNtcG3wsu8pr-106" value="17.回傳搜尋器結果" style="edgeLabel;html=1;align=center;verticalAlign=middle;resizable=0;points=[];" vertex="1" connectable="0" parent="1peLIf2quNtcG3wsu8pr-105">
          <mxGeometry x="0.1762" y="1" relative="1" as="geometry">
            <mxPoint x="-15.88" y="-10" as="offset" />
          </mxGeometry>
        </mxCell>
        <mxCell id="1peLIf2quNtcG3wsu8pr-107" value="" style="verticalLabelPosition=bottom;verticalAlign=top;html=1;shape=mxgraph.basic.rect;fillColor2=none;strokeWidth=1;size=20;indent=5;" vertex="1" parent="1">
          <mxGeometry x="342" y="628" width="10" height="40" as="geometry" />
        </mxCell>
        <mxCell id="1peLIf2quNtcG3wsu8pr-108" value="" style="edgeStyle=orthogonalEdgeStyle;rounded=0;orthogonalLoop=1;jettySize=auto;html=1;entryX=-0.317;entryY=0.135;entryDx=0;entryDy=0;entryPerimeter=0;" edge="1" parent="1">
          <mxGeometry relative="1" as="geometry">
            <mxPoint x="754.8299999999999" y="640.02" as="sourcePoint" />
            <mxPoint x="352" y="640.4699999999999" as="targetPoint" />
            <Array as="points">
              <mxPoint x="656.83" y="640.12" />
              <mxPoint x="656.83" y="640.12" />
            </Array>
          </mxGeometry>
        </mxCell>
        <mxCell id="1peLIf2quNtcG3wsu8pr-109" value="18.顯示搜尋器篩選後的地圖" style="edgeLabel;html=1;align=center;verticalAlign=middle;resizable=0;points=[];" vertex="1" connectable="0" parent="1peLIf2quNtcG3wsu8pr-108">
          <mxGeometry x="0.1416" y="2" relative="1" as="geometry">
            <mxPoint x="24.580000000000002" y="-15.079999999999998" as="offset" />
          </mxGeometry>
        </mxCell>
        <mxCell id="1peLIf2quNtcG3wsu8pr-118" value="露營地資訊UI" style="rounded=0;whiteSpace=wrap;html=1;" vertex="1" parent="1">
          <mxGeometry x="150" y="90" width="106" height="50" as="geometry" />
        </mxCell>
        <mxCell id="1peLIf2quNtcG3wsu8pr-119" value="" style="endArrow=none;dashed=1;html=1;dashPattern=1 3;strokeWidth=2;" edge="1" parent="1" source="1peLIf2quNtcG3wsu8pr-122">
          <mxGeometry width="50" height="50" relative="1" as="geometry">
            <mxPoint x="200" y="919" as="sourcePoint" />
            <mxPoint x="200" y="170" as="targetPoint" />
          </mxGeometry>
        </mxCell>
        <mxCell id="1peLIf2quNtcG3wsu8pr-120" value="" style="edgeStyle=orthogonalEdgeStyle;rounded=0;orthogonalLoop=1;jettySize=auto;html=1;entryX=-0.317;entryY=0.135;entryDx=0;entryDy=0;entryPerimeter=0;" edge="1" parent="1">
          <mxGeometry relative="1" as="geometry">
            <mxPoint x="352" y="239.86" as="sourcePoint" />
            <mxPoint x="754.8299999999999" y="239.41000000000008" as="targetPoint" />
            <Array as="points">
              <mxPoint x="650" y="239.46" />
              <mxPoint x="650" y="239.46" />
            </Array>
          </mxGeometry>
        </mxCell>
        <mxCell id="1peLIf2quNtcG3wsu8pr-121" value="4.點選想要查看的露營地" style="edgeLabel;html=1;align=center;verticalAlign=middle;resizable=0;points=[];" vertex="1" connectable="0" parent="1peLIf2quNtcG3wsu8pr-120">
          <mxGeometry x="0.1416" y="2" relative="1" as="geometry">
            <mxPoint x="-30.81" y="-8.62" as="offset" />
          </mxGeometry>
        </mxCell>
        <mxCell id="1peLIf2quNtcG3wsu8pr-128" value="" style="edgeStyle=orthogonalEdgeStyle;rounded=0;orthogonalLoop=1;jettySize=auto;html=1;exitX=0.2;exitY=0.8;exitDx=0;exitDy=0;exitPerimeter=0;" edge="1" parent="1" source="CQ5wD38VRIrhaRrIlDyT-18" target="1peLIf2quNtcG3wsu8pr-122">
          <mxGeometry relative="1" as="geometry">
            <mxPoint x="284" y="276" as="sourcePoint" />
          </mxGeometry>
        </mxCell>
        <mxCell id="1peLIf2quNtcG3wsu8pr-129" value="5.前往露營地資訊UI" style="edgeLabel;html=1;align=center;verticalAlign=middle;resizable=0;points=[];" vertex="1" connectable="0" parent="1peLIf2quNtcG3wsu8pr-128">
          <mxGeometry x="0.2744" y="2" relative="1" as="geometry">
            <mxPoint x="14.120000000000001" y="-18" as="offset" />
          </mxGeometry>
        </mxCell>
        <mxCell id="1peLIf2quNtcG3wsu8pr-122" value="" style="verticalLabelPosition=bottom;verticalAlign=top;html=1;shape=mxgraph.basic.rect;fillColor2=none;strokeWidth=1;size=20;indent=5;" vertex="1" parent="1">
          <mxGeometry x="194" y="256" width="10" height="40" as="geometry" />
        </mxCell>
        <mxCell id="1peLIf2quNtcG3wsu8pr-126" value="" style="endArrow=none;dashed=1;html=1;dashPattern=1 3;strokeWidth=2;" edge="1" parent="1" source="1peLIf2quNtcG3wsu8pr-139" target="1peLIf2quNtcG3wsu8pr-122">
          <mxGeometry width="50" height="50" relative="1" as="geometry">
            <mxPoint x="200" y="919" as="sourcePoint" />
            <mxPoint x="200" y="169.9999999999999" as="targetPoint" />
          </mxGeometry>
        </mxCell>
        <mxCell id="1peLIf2quNtcG3wsu8pr-135" value="" style="edgeStyle=orthogonalEdgeStyle;rounded=0;orthogonalLoop=1;jettySize=auto;html=1;" edge="1" parent="1" source="1peLIf2quNtcG3wsu8pr-130">
          <mxGeometry relative="1" as="geometry">
            <mxPoint x="343" y="432" as="targetPoint" />
            <Array as="points">
              <mxPoint x="343" y="432" />
            </Array>
          </mxGeometry>
        </mxCell>
        <mxCell id="1peLIf2quNtcG3wsu8pr-136" value="11.瀏覽地圖" style="edgeLabel;html=1;align=center;verticalAlign=middle;resizable=0;points=[];" vertex="1" connectable="0" parent="1peLIf2quNtcG3wsu8pr-135">
          <mxGeometry x="0.3546" y="1" relative="1" as="geometry">
            <mxPoint x="10.59" y="-9" as="offset" />
          </mxGeometry>
        </mxCell>
        <mxCell id="1peLIf2quNtcG3wsu8pr-130" value="" style="verticalLabelPosition=bottom;verticalAlign=top;html=1;shape=mxgraph.basic.rect;fillColor2=none;strokeWidth=1;size=20;indent=5;" vertex="1" parent="1">
          <mxGeometry x="80" y="420" width="10" height="36" as="geometry" />
        </mxCell>
        <mxCell id="1peLIf2quNtcG3wsu8pr-133" value="" style="endArrow=none;dashed=1;html=1;dashPattern=1 3;strokeWidth=2;" edge="1" parent="1" source="CQ5wD38VRIrhaRrIlDyT-55" target="1peLIf2quNtcG3wsu8pr-130">
          <mxGeometry width="50" height="50" relative="1" as="geometry">
            <mxPoint x="84.99999999999989" y="550" as="sourcePoint" />
            <mxPoint x="84.99999999999989" y="360.0000000000001" as="targetPoint" />
          </mxGeometry>
        </mxCell>
        <mxCell id="1peLIf2quNtcG3wsu8pr-137" value="" style="edgeStyle=orthogonalEdgeStyle;rounded=0;orthogonalLoop=1;jettySize=auto;html=1;" edge="1" parent="1">
          <mxGeometry relative="1" as="geometry">
            <mxPoint x="352" y="456" as="sourcePoint" />
            <mxPoint x="756.9999999999998" y="456" as="targetPoint" />
            <Array as="points">
              <mxPoint x="720" y="456" />
            </Array>
          </mxGeometry>
        </mxCell>
        <mxCell id="1peLIf2quNtcG3wsu8pr-138" value="12.點選露營地" style="edgeLabel;html=1;align=center;verticalAlign=middle;resizable=0;points=[];" vertex="1" connectable="0" parent="1peLIf2quNtcG3wsu8pr-137">
          <mxGeometry x="0.7794" y="3" relative="1" as="geometry">
            <mxPoint x="-172" y="-7" as="offset" />
          </mxGeometry>
        </mxCell>
        <mxCell id="1peLIf2quNtcG3wsu8pr-144" value="" style="edgeStyle=orthogonalEdgeStyle;rounded=0;orthogonalLoop=1;jettySize=auto;html=1;" edge="1" parent="1" target="1peLIf2quNtcG3wsu8pr-139">
          <mxGeometry relative="1" as="geometry">
            <mxPoint x="758" y="478" as="sourcePoint" />
            <Array as="points">
              <mxPoint x="758" y="478" />
            </Array>
          </mxGeometry>
        </mxCell>
        <mxCell id="1peLIf2quNtcG3wsu8pr-145" value="13.前往露營地資訊UI" style="edgeLabel;html=1;align=center;verticalAlign=middle;resizable=0;points=[];" vertex="1" connectable="0" parent="1peLIf2quNtcG3wsu8pr-144">
          <mxGeometry x="-0.1409" relative="1" as="geometry">
            <mxPoint x="-106.35" y="-12" as="offset" />
          </mxGeometry>
        </mxCell>
        <mxCell id="1peLIf2quNtcG3wsu8pr-139" value="" style="verticalLabelPosition=bottom;verticalAlign=top;html=1;shape=mxgraph.basic.rect;fillColor2=none;strokeWidth=1;size=20;indent=5;" vertex="1" parent="1">
          <mxGeometry x="194" y="460" width="10" height="36" as="geometry" />
        </mxCell>
        <mxCell id="1peLIf2quNtcG3wsu8pr-140" value="" style="endArrow=none;dashed=1;html=1;dashPattern=1 3;strokeWidth=2;" edge="1" parent="1" target="1peLIf2quNtcG3wsu8pr-139">
          <mxGeometry width="50" height="50" relative="1" as="geometry">
            <mxPoint x="200" y="919" as="sourcePoint" />
            <mxPoint x="199.03110419906682" y="296" as="targetPoint" />
          </mxGeometry>
        </mxCell>
        <mxCell id="1peLIf2quNtcG3wsu8pr-148" value="" style="edgeStyle=orthogonalEdgeStyle;rounded=0;orthogonalLoop=1;jettySize=auto;html=1;entryX=-0.285;entryY=0.489;entryDx=0;entryDy=0;entryPerimeter=0;" edge="1" parent="1" source="1peLIf2quNtcG3wsu8pr-146" target="1peLIf2quNtcG3wsu8pr-107">
          <mxGeometry relative="1" as="geometry">
            <mxPoint x="170" y="648" as="targetPoint" />
          </mxGeometry>
        </mxCell>
        <mxCell id="1peLIf2quNtcG3wsu8pr-149" value="19.瀏覽地圖" style="edgeLabel;html=1;align=center;verticalAlign=middle;resizable=0;points=[];" vertex="1" connectable="0" parent="1peLIf2quNtcG3wsu8pr-148">
          <mxGeometry x="0.3178" y="-2" relative="1" as="geometry">
            <mxPoint x="15.649999999999999" y="-19.62" as="offset" />
          </mxGeometry>
        </mxCell>
        <mxCell id="1peLIf2quNtcG3wsu8pr-146" value="" style="verticalLabelPosition=bottom;verticalAlign=top;html=1;shape=mxgraph.basic.rect;fillColor2=none;strokeWidth=1;size=20;indent=5;" vertex="1" parent="1">
          <mxGeometry x="80" y="628" width="10" height="40" as="geometry" />
        </mxCell>
        <mxCell id="1peLIf2quNtcG3wsu8pr-150" value="" style="edgeStyle=orthogonalEdgeStyle;rounded=0;orthogonalLoop=1;jettySize=auto;html=1;entryX=-0.317;entryY=0.135;entryDx=0;entryDy=0;entryPerimeter=0;" edge="1" parent="1">
          <mxGeometry relative="1" as="geometry">
            <mxPoint x="355.17" y="660.4499999999998" as="sourcePoint" />
            <mxPoint x="757.9999999999999" y="660" as="targetPoint" />
            <Array as="points">
              <mxPoint x="660" y="660.1" />
              <mxPoint x="660" y="660.1" />
            </Array>
          </mxGeometry>
        </mxCell>
        <mxCell id="1peLIf2quNtcG3wsu8pr-151" value="20.點選露營地" style="edgeLabel;html=1;align=center;verticalAlign=middle;resizable=0;points=[];" vertex="1" connectable="0" parent="1peLIf2quNtcG3wsu8pr-150">
          <mxGeometry x="0.1416" y="2" relative="1" as="geometry">
            <mxPoint x="-34.58" y="-8.379999999999999" as="offset" />
          </mxGeometry>
        </mxCell>
        <mxCell id="1peLIf2quNtcG3wsu8pr-154" value="" style="edgeStyle=orthogonalEdgeStyle;rounded=0;orthogonalLoop=1;jettySize=auto;html=1;" edge="1" parent="1" target="1peLIf2quNtcG3wsu8pr-152">
          <mxGeometry relative="1" as="geometry">
            <mxPoint x="756" y="680" as="sourcePoint" />
            <Array as="points">
              <mxPoint x="756" y="680" />
            </Array>
          </mxGeometry>
        </mxCell>
        <mxCell id="1peLIf2quNtcG3wsu8pr-155" value="21.前往露營地資訊UI" style="edgeLabel;html=1;align=center;verticalAlign=middle;resizable=0;points=[];" vertex="1" connectable="0" parent="1peLIf2quNtcG3wsu8pr-154">
          <mxGeometry x="-0.2586" y="2" relative="1" as="geometry">
            <mxPoint x="-137.29" y="-12" as="offset" />
          </mxGeometry>
        </mxCell>
        <mxCell id="1peLIf2quNtcG3wsu8pr-152" value="" style="verticalLabelPosition=bottom;verticalAlign=top;html=1;shape=mxgraph.basic.rect;fillColor2=none;strokeWidth=1;size=20;indent=5;" vertex="1" parent="1">
          <mxGeometry x="194" y="668" width="10" height="36" as="geometry" />
        </mxCell>
      </root>
    </mxGraphModel>
  </diagram>
</mxfile>
